<svg xmlns="http://www.w3.org/2000/svg" width="551" height="385" viewBox="0 0 551 385" version="1.1">
	<path d="M 32.977 14.447 C 27.878 17.108, 19.543 25.526, 17.852 29.722 C 16.236 33.734, 16.662 102.165, 18.309 103.212 C 18.964 103.629, 42.337 103.976, 70.250 103.985 C 98.163 103.993, 120.980 104.338, 120.956 104.750 C 120.932 105.162, 120.319 107.750, 119.595 110.500 L 118.279 115.500 67.890 116 L 17.500 116.500 17.200 122.855 L 16.899 129.210 64.037 128.855 L 111.176 128.500 110.577 132.247 C 110.247 134.308, 108.879 138.477, 107.537 141.511 L 105.098 147.028 76.799 146.460 C 61.234 146.148, 41.525 146.254, 33 146.696 L 17.500 147.500 17.204 154.250 L 16.909 161 55.204 161.115 C 76.267 161.178, 94.349 161.140, 95.386 161.029 C 96.423 160.919, 98.823 161.119, 100.719 161.475 C 103.429 161.983, 104.027 162.484, 103.514 163.811 C 103.154 164.740, 102.610 166.739, 102.304 168.252 L 101.749 171.005 108.125 168.618 C 114.840 166.103, 123.625 165.090, 140.500 164.885 C 154.278 164.718, 153.713 164.589, 154.213 168 C 154.455 169.650, 154.327 171, 153.929 171 C 153.530 171, 153.401 172.912, 153.641 175.250 C 154.683 185.387, 154.504 186.409, 150.548 192.921 C 147.030 198.713, 146.830 199.403, 148.351 200.514 C 149.782 201.561, 149.336 201.840, 145.261 202.446 C 132.165 204.395, 125.300 204.738, 99 204.756 C 79.361 204.769, 72.475 204.515, 76.852 203.937 C 80.345 203.476, 83.720 202.887, 84.352 202.628 C 84.983 202.370, 74.190 202.122, 60.367 202.079 C 35.985 202.002, 35.218 202.060, 34.707 204.013 C 34.417 205.122, 32.454 206.776, 30.340 207.694 C 27.621 208.875, 27.011 209.476, 28.250 209.754 C 29.212 209.970, 30 211.014, 30 212.073 C 30 213.314, 30.691 214, 31.941 214 C 33.009 214, 34.160 214.450, 34.500 215 C 34.840 215.550, 36.161 216, 37.437 216 C 38.712 216, 40.332 216.695, 41.037 217.544 C 41.909 218.595, 43.307 218.913, 45.409 218.540 C 48.059 218.069, 48.179 218.129, 46.250 218.963 C 43.461 220.168, 43.306 220.994, 46 220.290 C 47.100 220.002, 48 220.227, 48 220.790 C 48 221.352, 48.902 221.577, 50.005 221.288 C 51.108 221, 52.628 221.277, 53.383 221.903 C 54.459 222.796, 54.870 222.605, 55.284 221.021 C 55.657 219.595, 56.649 218.997, 58.656 218.989 C 60.220 218.983, 63.300 218.665, 65.500 218.283 C 69.394 217.607, 69.422 217.574, 66.544 217.044 C 64.919 216.745, 82.806 216.500, 106.293 216.500 C 129.781 216.500, 148.998 216.878, 148.999 217.340 C 149.002 219.234, 142.564 236.666, 141.091 238.754 C 140.200 240.017, 138.758 240.835, 137.812 240.614 C 136.884 240.397, 131.034 240.604, 124.812 241.075 C 118.590 241.545, 92.455 241.962, 66.734 242.002 C 41.013 242.042, 19.300 242.331, 18.484 242.645 C 17.347 243.081, 17 245.043, 17 251.040 C 17 259.751, 16.645 259.342, 25.250 260.557 C 29.001 261.086, 30 261.624, 30 263.114 C 30 264.151, 30.675 265, 31.500 265 C 32.325 265, 33 265.873, 33 266.941 C 33 268.009, 33.533 269.211, 34.184 269.613 C 36.219 270.871, 32.001 271.855, 24.250 271.930 L 17 272 17 280.941 C 17 285.859, 17.440 290.154, 17.977 290.486 C 18.515 290.818, 41.718 291.248, 69.540 291.441 C 97.363 291.635, 120.308 291.975, 120.531 292.197 C 120.753 292.420, 120.519 294.154, 120.009 296.051 C 119.500 297.948, 118.828 300.751, 118.515 302.280 L 117.947 305.060 68.487 304.962 C 41.285 304.909, 18.572 305.147, 18.014 305.491 C 17.373 305.887, 17.003 315.026, 17.009 330.309 L 17.019 354.500 19.890 359.500 C 23.667 366.076, 27.497 369.833, 33 372.361 L 37.500 374.428 276.590 374.316 C 513.526 374.205, 515.715 374.186, 519.597 372.206 C 525.476 369.206, 533.629 360.093, 535.005 354.982 C 536.560 349.208, 535.992 306.895, 534.333 304.899 C 533.511 303.910, 533.431 302.075, 534.064 298.689 C 534.557 296.046, 534.899 293.572, 534.822 293.192 C 534.745 292.811, 535.011 291.754, 535.413 290.843 C 535.814 289.931, 535.773 284.981, 535.321 279.843 L 534.500 270.500 528.750 270.200 C 525.587 270.035, 523 269.653, 523 269.351 C 523 269.049, 524.237 267.595, 525.750 266.120 C 527.263 264.644, 529.138 262.471, 529.918 261.291 C 530.699 260.111, 532.111 258.943, 533.057 258.695 C 534.609 258.290, 534.796 256.151, 534.966 236.873 C 535.175 213.253, 535.186 214.377, 534.428 183.750 C 534.035 167.865, 533.568 161.996, 532.695 161.985 C 531.976 161.975, 532.098 161.592, 533 161.021 C 536.107 159.058, 534.853 104.772, 531.705 104.958 C 531.317 104.981, 529.538 104.929, 527.750 104.843 C 525.414 104.730, 525.906 104.519, 529.500 104.093 L 534.500 103.500 535.264 69.056 C 535.911 39.923, 535.800 33.823, 534.543 29.501 C 532.799 23.501, 527.876 18.105, 521.100 14.767 L 516.500 12.500 277 12.293 L 37.500 12.086 32.977 14.447 M 67.121 72.002 C 62.210 73.162, 60.658 76.625, 63.049 81.091 C 64.034 82.931, 64.841 83.011, 76.299 82.391 C 83.009 82.028, 89.038 81.306, 89.696 80.788 C 90.562 80.105, 90.611 79.108, 89.876 77.174 C 87.823 71.773, 86.307 70.992, 78.095 71.102 C 73.918 71.159, 68.979 71.564, 67.121 72.002 M 152.523 72.250 C 145.800 92.527, 136.788 118.416, 132.493 129.787 C 130.979 133.795, 129.982 137.316, 130.277 137.611 C 130.573 137.906, 132.093 137.487, 133.657 136.681 C 137.722 134.584, 156.309 127.673, 157.500 127.816 C 158.050 127.882, 161.650 128.539, 165.500 129.276 C 174.421 130.982, 174.189 130.969, 176.213 129.886 C 177.184 129.366, 177.677 128.322, 177.351 127.472 C 177.035 126.648, 177.316 125.324, 177.976 124.528 C 179.209 123.043, 178.778 122.822, 172.500 121.730 C 166.835 120.744, 247.878 119.890, 326 120.113 C 391.917 120.301, 415.049 120.068, 416.652 119.200 C 417.930 118.508, 419.636 115.690, 420.849 112.267 C 421.974 109.095, 424.451 102.096, 426.354 96.714 C 429.930 86.603, 431.587 83.626, 433.113 84.570 C 433.601 84.871, 434.015 87.004, 434.033 89.309 L 434.065 93.500 435.971 89 C 440.312 78.749, 442.706 72.040, 442.203 71.536 C 441.908 71.241, 376.703 71, 297.302 71 C 182.698 71, 152.852 71.258, 152.523 72.250 M 487.755 71.941 C 481.790 72.758, 480.785 73.779, 481.182 78.618 L 481.500 82.500 489.694 82.790 C 498.785 83.111, 500.324 82.146, 499.296 76.770 C 498.416 72.164, 495.386 70.896, 487.755 71.941 M 441.250 130.662 C 440.563 130.940, 440 131.579, 440 132.083 C 440 133.269, 448.304 133.281, 449.550 132.097 C 450.072 131.600, 451.400 130.978, 452.500 130.713 C 453.600 130.448, 451.800 130.215, 448.500 130.195 C 445.200 130.175, 441.938 130.385, 441.250 130.662 M 198.917 144.719 C 195.526 145.080, 195.237 145.407, 193.541 150.800 C 192.556 153.935, 187.951 167.075, 183.307 180 C 178.664 192.925, 172.611 209.800, 169.855 217.500 C 167.099 225.200, 163.032 236.225, 160.818 242 C 158.603 247.775, 154.407 259.250, 151.493 267.500 C 148.579 275.750, 143.444 289.845, 140.083 298.823 C 134.349 314.141, 133.494 318.099, 136.319 316.266 C 136.969 315.845, 150.971 315.050, 167.435 314.500 L 197.371 313.500 200.722 301.068 C 202.566 294.230, 205.137 285.680, 206.435 282.068 C 207.734 278.455, 211.509 267.850, 214.826 258.500 C 218.142 249.150, 222.736 236.550, 225.034 230.500 C 227.333 224.450, 230.472 215.900, 232.010 211.500 C 233.549 207.100, 235.591 201.700, 236.548 199.500 C 240.248 190.999, 254 149.483, 254 146.814 L 254 144 228.250 144.168 C 214.088 144.261, 200.888 144.508, 198.917 144.719 M 335.500 146.460 C 311.052 152.004, 291.857 166.601, 284.163 185.500 C 272.743 213.552, 265.584 233.939, 261.383 250.377 C 257.792 264.429, 258.278 276.102, 262.916 287.184 C 268.327 300.113, 276.584 307.553, 291.102 312.580 L 298.500 315.143 346.345 314.821 C 376.772 314.617, 394.415 314.136, 394.808 313.501 C 395.148 312.952, 396.645 307.777, 398.135 302.001 C 399.625 296.226, 401.824 289.250, 403.021 286.500 C 405.906 279.870, 407.976 273.052, 407.989 270.132 C 407.995 268.830, 409.385 266.187, 411.077 264.259 C 412.770 262.332, 413.782 260.416, 413.327 260.003 C 412.872 259.590, 409.350 259.605, 405.500 260.037 C 390.918 261.672, 345.558 264.177, 336.543 263.846 C 325.401 263.436, 322.774 262.020, 319.121 254.456 C 316.912 249.881, 316.833 249.173, 318.016 244.515 C 318.717 241.757, 320.161 237.025, 321.224 234 C 322.287 230.975, 325.344 221.444, 328.017 212.819 C 330.690 204.195, 333.544 195.848, 334.360 194.271 C 336.486 190.159, 345.081 185.702, 349.983 186.170 C 352.100 186.372, 353.618 186.191, 353.357 185.768 C 353.096 185.346, 353.359 185, 353.941 185 C 354.523 185, 355 185.450, 355 186 C 355 186.550, 356.688 186.941, 358.750 186.868 L 362.500 186.737 359 186.080 C 355.789 185.477, 356.036 185.354, 362 184.583 C 365.575 184.122, 378.568 183.464, 390.874 183.122 L 413.248 182.500 416.182 174.500 C 417.796 170.100, 419.540 166.350, 420.058 166.167 C 420.576 165.983, 421 164.941, 421 163.851 C 421 160.613, 422.943 157.848, 424.811 158.429 C 425.740 158.718, 426.977 158.627, 427.559 158.227 C 429.385 156.974, 434.092 147.688, 433.277 146.949 C 432.849 146.562, 412.025 145.987, 387 145.672 C 350.610 145.215, 340.299 145.372, 335.500 146.460 M 425.543 163.931 C 425.226 164.443, 425.425 165.144, 425.984 165.490 C 426.543 165.835, 427 165.416, 427 164.559 C 427 162.802, 426.400 162.544, 425.543 163.931 M 72.813 218.683 C 73.534 218.972, 74.397 218.936, 74.729 218.604 C 75.061 218.272, 74.471 218.036, 73.417 218.079 C 72.252 218.127, 72.015 218.364, 72.813 218.683 M 49.813 239.683 C 50.534 239.972, 51.397 239.936, 51.729 239.604 C 52.061 239.272, 51.471 239.036, 50.417 239.079 C 49.252 239.127, 49.015 239.364, 49.813 239.683 M 102 262 C 93.475 262.319, 86.922 262.674, 87.439 262.790 C 88.710 263.075, 84.418 266.992, 82.792 267.030 C 82.081 267.047, 82.400 267.577, 83.500 268.208 C 84.600 268.839, 85.950 269.903, 86.500 270.573 C 87.214 271.443, 93.769 271.893, 109.392 272.146 L 131.285 272.500 133.114 267 C 134.120 263.975, 134.956 261.387, 134.972 261.250 C 135.006 260.946, 122.737 261.225, 102 262" stroke="none" fill="#000000" fill-rule="evenodd"/>
</svg>